<svg width="16" height="14" viewBox="0 0 16 14" fill="none" xmlns="http://www.w3.org/2000/svg">
<path fill-rule="evenodd" clip-rule="evenodd" d="M5.79053 13.0649L0.390533 7.66489C0.343684 7.61845 0.306497 7.56319 0.281119 7.5023C0.255742 7.44141 0.242676 7.3761 0.242676 7.31014C0.242676 7.24417 0.255742 7.17886 0.281119 7.11797C0.306497 7.05708 0.343684 7.00183 0.390533 6.95539L2.50103 4.83439C2.54747 4.78754 2.60273 4.75035 2.66362 4.72498C2.72451 4.6996 2.78982 4.68653 2.85578 4.68653C2.92175 4.68653 2.98706 4.6996 3.04795 4.72498C3.10884 4.75035 3.16409 4.78754 3.21053 4.83439L6.35153 8.00539L12.611 0.854889C12.6575 0.80804 12.7127 0.770853 12.7736 0.745475C12.8345 0.720097 12.8998 0.707031 12.9658 0.707031C13.0317 0.707031 13.0971 0.720097 13.1579 0.745475C13.2188 0.770853 13.2741 0.80804 13.3205 0.854889L15.581 2.85439C15.6281 2.90085 15.6655 2.95621 15.691 3.01723C15.7165 3.07826 15.7297 3.14374 15.7297 3.20989C15.7297 3.27603 15.7165 3.34152 15.691 3.40254C15.6655 3.46357 15.6281 3.51892 15.581 3.56539L7.24103 13.0049C7.15171 13.1072 7.04248 13.1903 6.92001 13.249C6.79754 13.3078 6.66439 13.3409 6.52868 13.3466C6.39296 13.3522 6.25753 13.3301 6.13062 13.2817C6.00372 13.2332 5.88801 13.1595 5.79053 13.0649Z" fill="#FF3D50"/>
</svg>
