<svg width="219" height="20" viewBox="0 0 219 20" fill="none" xmlns="http://www.w3.org/2000/svg">
<path d="M7.99477 12.7434H6.04049V19.8231H0V1.06201H6.04049V7.07971H8.35009L15.8119 1.06201H23.4513L12.4363 9.55759L23.9843 19.8231H15.9895L7.99477 12.7434Z" fill="#292929"/>
<path d="M97.1808 9.91154V10.6195C97.1808 11.1505 97.1808 11.6814 97.0031 12.2124C97.0031 12.7434 96.8255 13.2744 96.4701 13.9823C96.2925 14.6903 95.9372 15.2213 95.5818 15.7522C95.2265 16.2832 94.6935 16.8142 93.9829 17.3452C93.2722 17.8761 92.5616 18.4071 91.6733 18.7611C90.785 19.1151 89.719 19.4691 88.2977 19.6461C86.8764 19.823 85.4551 20 83.8562 20H38.0195C36.4206 20 34.8216 19.823 33.578 19.6461C32.1567 19.4691 31.0907 19.1151 30.2024 18.7611C29.3141 18.4071 28.6034 17.8761 27.8928 17.3452C27.1822 16.8142 26.6492 16.2832 26.2939 15.7522C25.9385 15.2213 25.5832 14.6903 25.4055 13.9823C25.2279 13.2744 25.0502 12.7434 25.0502 12.2124C25.0502 11.6814 24.8726 11.1505 24.8726 10.6195V9.91154C24.8726 9.38056 24.8726 8.84959 25.0502 8.31862C25.2279 7.78764 25.2279 7.25667 25.4055 6.54871C25.5832 5.84074 25.9385 5.30977 26.2939 4.77879C26.6492 4.24782 27.1822 3.71685 27.8928 3.18587C28.4258 2.6549 29.1364 2.30092 30.0247 1.76994C30.913 1.23897 31.979 1.06198 33.4003 0.884988C34.8216 0.707997 36.2429 0.531006 37.8418 0.531006H83.8562C85.4551 0.531006 87.0541 0.707997 88.2977 0.884988C89.5413 1.06198 90.785 1.41596 91.6733 1.76994C92.5616 2.12393 93.2722 2.6549 93.9829 3.18587C94.6935 3.71685 95.2265 4.24782 95.5818 4.77879C95.9372 5.30977 96.2925 5.84074 96.4701 6.54871C96.6478 7.25667 96.8255 7.78764 97.0031 8.31862C97.0031 8.84959 97.1808 9.38056 97.1808 9.91154ZM90.9626 10.0885C90.9626 9.55755 90.9626 9.20357 90.785 8.6726C90.6073 8.31862 90.4297 7.78764 90.0743 7.43366C89.719 6.90269 89.3637 6.54871 88.8307 6.19472C88.2977 5.84074 87.5871 5.66375 86.6988 5.48676C85.8105 5.30977 84.9221 5.13278 83.8562 5.13278C83.6785 5.13278 38.7302 5.13278 38.7302 5.13278C33.578 5.13278 31.0907 6.7257 31.0907 10.0885V10.4425C31.0907 10.9735 31.2684 11.6814 31.446 12.2124C31.6237 12.7434 31.979 13.2744 32.512 13.8053C33.045 14.3363 33.7556 14.6903 34.8216 15.0443C35.8876 15.3983 37.1312 15.5753 38.7302 15.5753C38.9078 15.5753 83.8562 15.5753 83.8562 15.5753C85.2775 15.5753 86.3434 15.3983 87.4094 15.0443C88.4754 14.6903 89.186 14.3363 89.719 13.8053C90.252 13.2744 90.6073 12.7434 90.785 12.2124C90.9626 11.6814 91.1403 11.1505 91.1403 10.4425V10.0885H90.9626Z" fill="#292929"/>
<path d="M155.454 8.84956H170.377V19.646H165.58C165.58 19.646 165.58 17.8761 165.58 16.6372C163.449 18.9381 160.073 20 155.454 20H112.815C110.683 20 108.729 19.823 106.952 19.292C105.176 18.9381 103.932 18.2301 102.866 17.6991C101.8 16.9911 101.089 16.2832 100.379 15.3982C99.6681 14.5133 99.3128 13.6283 99.1351 12.9204C98.9574 12.0354 98.7798 11.3274 98.7798 10.4425V9.55752C98.7798 8.67257 98.9574 7.9646 99.1351 7.07965C99.3128 6.37168 99.6681 5.48673 100.379 4.60177C101.089 3.71681 101.8 3.00885 102.866 2.30088C103.932 1.59292 105.176 1.06195 106.952 0.707965C108.374 0.176991 110.328 0 112.282 0C112.46 0 112.815 0 112.993 0H156.164C158.474 0 160.428 0.176991 162.205 0.530973C163.982 0.884956 165.225 1.23894 166.291 1.76991C167.179 2.30088 168.068 2.83186 168.778 3.53982C169.489 4.24779 169.844 4.95575 170.022 5.48673C170.2 6.0177 170.377 6.72566 170.377 7.25664H163.271C162.56 5.48673 160.073 4.60177 155.809 4.60177C155.454 4.60177 113.17 4.60177 112.815 4.60177C108.196 4.77876 105.886 6.54867 105.886 9.73451V10.0885C105.886 11.5044 106.597 12.7434 107.841 13.8053C109.084 14.6903 110.683 15.2212 112.993 15.3982C113.348 15.3982 155.454 15.3982 155.809 15.3982C157.053 15.3982 158.119 15.3982 159.007 15.2212C160.073 15.0442 160.784 14.8673 161.317 14.6903C161.672 14.1593 162.205 13.9823 162.56 13.6283C162.916 13.2743 163.271 13.0973 163.449 12.9204C163.626 12.7434 163.626 12.5664 163.626 12.3894H155.276V8.84956H155.454Z" fill="#292929"/>
<path d="M179.793 0.708008V15.0443H194.362V19.8231H173.22V0.708008H179.793Z" fill="#292929"/>
<path d="M201.468 12.3894L190.453 0.88501H198.448L204.844 7.78766L211.417 0.88501H218.701L208.042 12.3894V19.6461H201.646V12.3894H201.468Z" fill="#292929"/>
</svg>
