<svg width="129" height="20" viewBox="0 0 129 20" fill="none" xmlns="http://www.w3.org/2000/svg">
<path d="M12.5058 0H7.50192C3.35896 0 0 3.35896 0 7.50192V12.4981C0 16.641 3.35896 20 7.50192 20H12.5058C16.6487 20 20.0077 16.641 20.0077 12.4981V7.50192C20.0077 3.35896 16.6487 0 12.5058 0ZM15.8801 12.1368C15.0038 14.535 12.7056 16.249 10.0077 16.249C7.30976 16.249 5.01153 14.535 4.13528 12.1368C4.03536 11.8601 4.18909 11.5527 4.47348 11.4758L6.54112 10.9224C6.7794 10.8609 7.03305 10.9762 7.13298 11.2068C7.60953 12.329 8.71637 13.1207 10.0077 13.1207C11.3067 13.1207 12.4135 12.329 12.8901 11.2068C12.99 10.9762 13.236 10.8532 13.4819 10.9224L15.5496 11.4758C15.8263 11.5527 15.98 11.8601 15.8801 12.1368Z" fill="black"/>
<path d="M29.3011 4.94287C30.185 4.94287 30.9537 5.08891 31.607 5.38868C32.2603 5.68077 32.76 6.10352 33.1135 6.64925C33.4671 7.19498 33.6439 7.83296 33.6439 8.57854C33.6439 9.31643 33.4671 9.9544 33.1135 10.5001C32.76 11.0459 32.2603 11.4686 31.607 11.7607C30.9537 12.0528 30.185 12.1988 29.3011 12.1988H27.2872V14.9582H24.9736V4.94287H29.3011ZM29.0167 6.83372H27.2796V10.3003H28.8937C28.9321 10.3003 28.9782 10.308 29.0167 10.308H29.5701C30.5309 10.308 31.3072 9.53165 31.3072 8.57085C31.3072 7.61005 30.5309 6.83372 29.5701 6.83372H29.0167Z" fill="black"/>
<path d="M43.0209 7.25605V14.9424H40.8917V14.0585C40.3383 14.7272 39.5389 15.0577 38.4936 15.0577C37.7711 15.0577 37.11 14.8963 36.5259 14.5735C35.9417 14.2507 35.4805 13.7895 35.15 13.1899C34.8195 12.5904 34.6504 11.8909 34.6504 11.0992C34.6504 10.3075 34.8195 9.61577 35.15 9.01623C35.4805 8.41669 35.9417 7.95551 36.5259 7.63268C37.11 7.30985 37.7634 7.14844 38.4936 7.14844C39.4774 7.14844 40.2384 7.45589 40.7918 8.07849V7.26373H43.0209V7.25605ZM38.7626 8.97011C37.5789 8.97011 36.6258 9.92323 36.6258 11.1069C36.6258 12.2906 37.5789 13.2438 38.7626 13.2438C39.9386 13.2438 40.8994 12.2906 40.8994 11.1069C40.8994 9.92323 39.9463 8.97011 38.7626 8.97011Z" fill="black"/>
<path d="M47.0107 8.27834C47.2798 7.90939 47.6333 7.62499 48.0868 7.43283C48.5403 7.24067 49.063 7.14844 49.6548 7.14844V9.20839C49.4089 9.18533 49.2398 9.17765 49.1552 9.17765C48.5173 9.17765 48.0176 9.35443 47.6564 9.71569C47.2951 10.077 47.1106 10.6073 47.1106 11.3222V14.9501H44.8816V7.26373H47.0107V8.27834Z" fill="black"/>
<path d="M66.5038 11.6142C66.5038 11.5912 66.5038 11.5681 66.5038 11.5451V10.6765C66.5038 9.73875 65.7428 8.97011 64.7974 8.97011C63.8596 8.97011 63.0987 9.73107 63.0987 10.6765V11.5451C63.0987 11.5681 63.0987 11.5989 63.0987 11.6219V14.9501H60.8696V7.26373H62.9988V8.16304C63.2908 7.84021 63.6598 7.58656 64.0979 7.40978C64.536 7.23299 65.0203 7.14844 65.543 7.14844C66.4961 7.14844 67.2647 7.43283 67.8489 8.00931C68.433 8.57811 68.7251 9.4313 68.7251 10.5535V14.9578H66.4961V11.6142H66.5038Z" fill="black"/>
<path d="M74.4055 4.28906H78.2871L75.9274 5.7341H73.0066L74.4055 4.28906Z" fill="black"/>
<path d="M88.6709 9.74687C89.2397 9.93134 89.6932 10.2311 90.0161 10.6539C90.3389 11.0766 90.5003 11.5993 90.5003 12.2219C90.5003 13.0981 90.1621 13.7745 89.478 14.2434C88.7939 14.7123 87.8024 14.9506 86.4957 14.9506H81.3228V4.94287H86.2113C87.4334 4.94287 88.3635 5.17346 89.0168 5.64233C89.6702 6.1112 89.993 6.74149 89.993 7.54087C89.993 8.02512 89.8777 8.46324 89.6394 8.83987C89.4165 9.22419 89.086 9.53165 88.6709 9.74687ZM84.943 10.7307H83.6825V13.2442H84.943H86.9108C87.6025 13.2442 88.1713 12.6831 88.1713 11.9836C88.1713 11.2918 87.6102 10.723 86.9108 10.723H84.943V10.7307ZM84.7893 6.83372H83.6825V9.04741H84.7893H86.5726C87.1798 9.04741 87.6794 8.55548 87.6794 7.94057C87.6794 7.32565 87.1798 6.83372 86.5726 6.83372H84.7893Z" fill="black"/>
<path d="M115.742 8.97767C115.688 8.96999 115.634 8.96999 115.581 8.96999C115.35 8.96999 115.135 9.00842 114.927 9.0776C114.643 9.16983 114.397 9.32356 114.182 9.53878C114.082 9.6387 113.997 9.74631 113.92 9.86161C113.72 10.1691 113.605 10.538 113.605 10.9377V11.2605C113.605 12.352 114.489 13.2359 115.581 13.2359C115.696 13.2359 115.803 13.2283 115.911 13.2052C116.534 13.1283 117.01 12.7824 117.356 12.1675L119.086 13.113C118.809 13.7202 118.371 14.1967 117.763 14.5426C117.156 14.8885 116.449 15.0576 115.642 15.0576C114.82 15.0576 114.089 14.8885 113.436 14.5503C112.783 14.2121 112.275 13.7432 111.906 13.1437C111.538 12.5442 111.353 11.8601 111.353 11.0991C111.353 10.3382 111.538 9.65408 111.906 9.05454C112.275 8.455 112.783 7.98613 113.436 7.64793C114.089 7.30973 114.827 7.14062 115.642 7.14062C116.449 7.14062 117.156 7.30973 117.763 7.64793C118.371 7.98613 118.809 8.47037 119.086 9.10066L117.356 10.0307C116.972 9.36199 116.441 9.01611 115.742 8.97767Z" fill="black"/>
<path d="M124.513 15.0654C123.706 15.0654 122.975 14.8963 122.337 14.5581C121.692 14.2199 121.192 13.7511 120.831 13.1515C120.47 12.552 120.285 11.8679 120.285 11.1069C120.285 10.346 120.47 9.66189 120.831 9.06235C121.192 8.46281 121.692 7.99394 122.337 7.65574C122.983 7.31754 123.706 7.14844 124.513 7.14844C125.32 7.14844 126.05 7.31754 126.688 7.65574C127.326 7.99394 127.826 8.46281 128.187 9.06235C128.548 9.66189 128.733 10.346 128.733 11.1069C128.733 11.8679 128.548 12.552 128.187 13.1515C127.826 13.7511 127.326 14.2199 126.688 14.5581C126.05 14.8963 125.327 15.0654 124.513 15.0654ZM124.505 13.2437C125.681 13.2437 126.642 12.2906 126.642 11.1069C126.642 9.93091 125.689 8.97011 124.505 8.97011C123.329 8.97011 122.368 9.92323 122.368 11.1069C122.376 12.2829 123.329 13.2437 124.505 13.2437Z" fill="black"/>
<path d="M78.4401 7.25605V14.9424H76.3109V14.0585C75.7575 14.7272 74.9581 15.0577 73.9128 15.0577C73.1903 15.0577 72.5369 14.8963 71.9451 14.5735C71.3609 14.2507 70.8997 13.7895 70.5692 13.1899C70.2387 12.5904 70.0696 11.8909 70.0696 11.0992C70.0696 10.3075 70.2387 9.61577 70.5692 9.01623C70.8997 8.41669 71.3609 7.95551 71.9451 7.63268C72.5292 7.30985 73.1826 7.14844 73.9128 7.14844C74.8966 7.14844 75.6576 7.45589 76.211 8.07849V7.26373H78.4401V7.25605ZM74.1895 8.97011C73.0058 8.97011 72.0527 9.92323 72.0527 11.1069C72.0527 12.2906 73.0058 13.2438 74.1895 13.2438C75.3732 13.2438 76.3263 12.2906 76.3263 11.1069C76.3263 9.92323 75.3732 8.97011 74.1895 8.97011Z" fill="black"/>
<path d="M100.193 7.25605V14.9424H98.0639V14.0585C97.5104 14.7272 96.7111 15.0577 95.6657 15.0577C94.9432 15.0577 94.2898 14.8963 93.698 14.5735C93.1138 14.2507 92.6526 13.7895 92.3221 13.1899C91.9916 12.5904 91.8225 11.8909 91.8225 11.0992C91.8225 10.3075 91.9916 9.61577 92.3221 9.01623C92.6526 8.41669 93.1138 7.95551 93.698 7.63268C94.2822 7.30985 94.9355 7.14844 95.6657 7.14844C96.6496 7.14844 97.4105 7.45589 97.9639 8.07849V7.26373H100.193V7.25605ZM95.9424 8.97011C94.7587 8.97011 93.8056 9.92323 93.8056 11.1069C93.8056 12.2906 94.7587 13.2438 95.9424 13.2438C97.1261 13.2438 98.0792 12.2906 98.0792 11.1069C98.0792 9.92323 97.1184 8.97011 95.9424 8.97011Z" fill="black"/>
<path d="M107.686 11.6142C107.686 11.5912 107.686 11.5681 107.686 11.5451V10.6765C107.686 9.73875 106.925 8.97011 105.98 8.97011C105.042 8.97011 104.281 9.73107 104.281 10.6765V11.5451C104.281 11.5681 104.281 11.5989 104.281 11.6219V14.9501H102.052V7.26373H104.181V8.16304C104.473 7.84021 104.842 7.58656 105.28 7.40978C105.718 7.23299 106.203 7.14844 106.725 7.14844C107.678 7.14844 108.447 7.43283 109.031 8.00931C109.615 8.57811 109.907 9.4313 109.907 10.5535V14.9578H107.678V11.6142H107.686Z" fill="black"/>
</svg>
