<svg width="146" height="48" viewBox="0 0 146 48" fill="none" xmlns="http://www.w3.org/2000/svg">
<path d="M62.4011 25.2602C62.4011 32.166 56.9986 37.2548 50.3686 37.2548C43.7386 37.2548 38.3362 32.166 38.3362 25.2602C38.3362 18.3057 43.7386 13.2656 50.3686 13.2656C56.9986 13.2656 62.4011 18.3057 62.4011 25.2602ZM57.1338 25.2602C57.1338 20.9448 54.0027 17.9921 50.3686 17.9921C46.7346 17.9921 43.6034 20.9448 43.6034 25.2602C43.6034 29.5324 46.7346 32.5283 50.3686 32.5283C54.0027 32.5283 57.1338 29.527 57.1338 25.2602Z" fill="#666666"/>
<path d="M88.3586 25.2602C88.3586 32.166 82.9562 37.2548 76.3262 37.2548C69.6961 37.2548 64.2937 32.166 64.2937 25.2602C64.2937 18.3111 69.6961 13.2656 76.3262 13.2656C82.9562 13.2656 88.3586 18.3057 88.3586 25.2602ZM83.0914 25.2602C83.0914 20.9448 79.9602 17.9921 76.3262 17.9921C72.6921 17.9921 69.5609 20.9448 69.5609 25.2602C69.5609 29.5324 72.6921 32.5283 76.3262 32.5283C79.9602 32.5283 83.0914 29.527 83.0914 25.2602Z" fill="#666666"/>
<path d="M113.235 13.9903V35.5243C113.235 44.3823 108.011 48.0002 101.835 48.0002C96.0215 48.0002 92.5226 44.1119 91.2031 40.9321L95.7889 39.0232C96.6055 40.9754 98.6064 43.2791 101.829 43.2791C105.783 43.2791 108.232 40.8402 108.232 36.2489V34.5238H108.048C106.87 35.9785 104.598 37.2494 101.732 37.2494C95.7348 37.2494 90.2405 32.0254 90.2405 25.3035C90.2405 18.5329 95.7348 13.2656 101.732 13.2656C104.593 13.2656 106.864 14.5365 108.048 15.9479H108.232V13.9957H113.235V13.9903ZM108.605 25.3035C108.605 21.08 105.788 17.9921 102.203 17.9921C98.5685 17.9921 95.5239 21.08 95.5239 25.3035C95.5239 29.4837 98.5685 32.5283 102.203 32.5283C105.788 32.5283 108.605 29.4837 108.605 25.3035Z" fill="#666666"/>
<path d="M121.482 1.36816V36.5191H116.344V1.36816H121.482Z" fill="#666666"/>
<path d="M141.501 29.208L145.59 31.9335C144.27 33.8857 141.09 37.2494 135.596 37.2494C128.782 37.2494 123.693 31.9822 123.693 25.2548C123.693 18.1219 128.825 13.2603 135.007 13.2603C141.231 13.2603 144.276 18.2138 145.271 20.8907L145.817 22.2535L129.783 28.8943C131.01 31.3008 132.919 32.5284 135.596 32.5284C138.278 32.5284 140.139 31.2089 141.501 29.208ZM128.917 24.8925L139.636 20.4419C139.046 18.9439 137.272 17.9002 135.185 17.9002C132.508 17.9002 128.782 20.2634 128.917 24.8925Z" fill="#666666"/>
<path d="M18.8896 22.1397V17.0509H36.0378C36.2055 17.9378 36.292 18.9869 36.292 20.1226C36.292 23.9405 35.2483 28.6616 31.8846 32.0252C28.6129 35.4322 24.4326 37.2492 18.895 37.2492C8.63091 37.2492 0 28.8887 0 18.6246C0 8.36052 8.63091 0 18.895 0C24.5732 0 28.6183 2.22803 31.6575 5.13204L28.0667 8.72284C25.8873 6.67868 22.9346 5.08878 18.8896 5.08878C11.3943 5.08878 5.53222 11.1293 5.53222 18.6246C5.53222 26.1199 11.3943 32.1604 18.8896 32.1604C23.7512 32.1604 26.52 30.2082 28.2938 28.4344C29.7323 26.9959 30.6787 24.941 31.0518 22.1343L18.8896 22.1397Z" fill="#666666"/>
</svg>
