<svg width="176" height="56" viewBox="0 0 176 56" fill="none" xmlns="http://www.w3.org/2000/svg">
<g clip-path="url(#clip0_121_449)">
<path d="M51.2844 46.4776V21.2663C51.2844 21.1302 51.3751 21.0396 51.5111 21.0396H56.363C56.499 21.0396 56.5897 21.1756 56.5897 21.2663V30.3804H56.6804C57.95 28.7481 59.8998 28.0225 62.031 28.0225C65.8399 28.0225 67.0642 30.5165 67.0642 33.8266V46.5229C67.0642 46.6136 66.9735 46.7497 66.8375 46.7497H61.9856C61.8496 46.7497 61.7589 46.659 61.7589 46.5229V34.28C61.7589 32.829 60.2626 32.4209 59.3103 32.4209C58.3581 32.4209 56.5897 33.0557 56.5897 34.8242V46.4776C56.5897 46.5683 56.499 46.7043 56.363 46.7043H51.5111C51.4205 46.7043 51.2844 46.6136 51.2844 46.4776ZM89.963 41.4898V32.829H87.7411C87.6051 32.829 87.5144 32.7383 87.5144 32.6023V29.4736C87.5144 29.3829 87.6051 29.2922 87.6504 29.2468C87.7411 29.2015 90.5978 28.3853 90.5978 28.3853C90.5978 28.3853 92.1395 23.4881 92.1848 23.3974C92.2302 23.3068 92.2755 23.2614 92.4115 23.2614H95.0415C95.1775 23.2614 95.2682 23.3521 95.2682 23.4881V28.3853H99.1678C99.2585 28.3853 99.3945 28.476 99.3945 28.612V32.6023C99.3945 32.7383 99.2585 32.829 99.1678 32.829H95.2682V40.991C95.2682 41.8525 95.767 42.3513 96.9006 42.3513H99.1678C99.3039 42.3513 99.3945 42.4873 99.3945 42.578V46.0695C99.3945 46.2055 99.3039 46.2509 99.2585 46.2962C97.8982 46.795 97.1273 47.1124 95.5403 47.1124C91.5954 47.0671 89.963 44.7545 89.963 41.4898ZM165.869 41.4898V32.829H163.647C163.511 32.829 163.42 32.7383 163.42 32.6023V29.4736C163.42 29.3829 163.511 29.2922 163.556 29.2468C163.647 29.2015 166.504 28.3853 166.504 28.3853C166.504 28.3853 168.046 23.4881 168.091 23.3974C168.136 23.3068 168.182 23.2614 168.318 23.2614H170.948C171.084 23.2614 171.174 23.3521 171.174 23.4881V28.3853H175.074C175.165 28.3853 175.301 28.476 175.301 28.612V32.6023C175.301 32.7383 175.165 32.829 175.074 32.829H171.174V40.991C171.174 41.8525 171.673 42.3513 172.807 42.3513H175.074C175.21 42.3513 175.301 42.4873 175.301 42.578V46.0695C175.301 46.2055 175.21 46.2509 175.165 46.2962C173.804 46.795 173.033 47.1124 171.446 47.1124C167.456 47.0671 165.869 44.7545 165.869 41.4898ZM102.614 46.4776V28.5667C102.614 28.4306 102.705 28.34 102.841 28.34H107.239C107.33 28.34 107.42 28.4306 107.466 28.5213C107.466 28.612 107.965 30.3351 107.965 30.3351H108.055C109.325 28.7027 111.229 27.9772 113.361 27.9772C115.945 27.9772 117.215 29.1562 117.94 30.9699H118.076C119.391 28.7481 121.704 27.9772 123.835 27.9772C127.644 27.9772 128.868 30.4711 128.868 33.7812V46.4776C128.868 46.6136 128.778 46.7043 128.642 46.7043H123.79C123.654 46.7043 123.563 46.5683 123.563 46.4776V34.3254C123.563 32.8744 122.203 32.3302 121.25 32.3302C120.162 32.3302 118.484 33.0104 118.439 34.6428V46.4323C118.439 46.523 118.348 46.659 118.212 46.659H113.315C113.179 46.659 113.088 46.5683 113.088 46.4323V34.28C113.088 32.829 111.637 32.2849 110.595 32.2849C109.642 32.2849 107.965 33.0104 107.965 34.8242V46.4323C107.965 46.5683 107.874 46.659 107.738 46.659H102.886C102.705 46.7043 102.614 46.5683 102.614 46.4776ZM132.042 32.4209V29.1108C132.042 28.9748 132.133 28.8841 132.224 28.8841C134.763 28.3853 137.076 28.0225 139.297 28.0225C144.013 28.0225 146.734 29.1561 146.734 34.2347V46.5229C146.734 46.659 146.643 46.7497 146.507 46.7497H141.882C141.746 46.7497 141.701 46.659 141.655 46.5683C141.61 46.4776 141.156 44.7545 141.156 44.7545H141.383C140.068 46.5683 138.3 47.1124 136.169 47.1124C132.722 47.1124 130.863 44.4371 130.863 41.263C130.863 36.5019 134.355 35.5497 136.939 35.5497H141.429V34.3254C141.429 32.829 140.295 32.5116 136.033 32.5116C134.219 32.5116 132.314 32.6476 132.224 32.6476C132.178 32.6476 132.042 32.5116 132.042 32.4209ZM141.474 38.7691H138.572C137.03 38.7691 136.033 39.3586 136.033 40.991C136.033 42.7594 137.302 43.1675 138.527 43.1675C139.66 43.1675 141.474 42.4873 141.474 40.2201V38.7691ZM149.863 46.4776V28.5667C149.863 28.4306 149.953 28.34 150.089 28.34H154.442C154.578 28.34 154.669 28.4306 154.669 28.5213C154.669 28.612 155.168 31.2873 155.168 31.2873H155.259C156.437 28.8841 158.841 28.0225 160.927 27.9319C161.063 27.9319 161.153 28.0225 161.153 28.1586V33.1464C161.153 33.2825 161.017 33.3732 160.927 33.3732H159.702C156.347 33.3732 155.213 34.6881 155.213 36.3659V46.4323C155.213 46.5683 155.077 46.659 154.986 46.659H150.135C149.999 46.7043 149.863 46.6136 149.863 46.4776ZM69.3314 37.5448C69.3314 31.6954 71.5986 28.0225 78.0828 28.0225C84.567 28.0225 86.8796 31.7408 86.8796 37.5448C86.8796 43.3942 84.6124 47.0671 78.0828 47.0671C71.5986 47.0671 69.3314 43.3942 69.3314 37.5448ZM75.0447 37.5448C75.0447 40.7189 75.4982 42.6234 78.0375 42.6234C80.6221 42.6234 81.0755 40.6736 81.0755 37.5448C81.0755 34.3707 80.6221 32.4663 78.0375 32.4663C75.5435 32.4663 75.0447 34.3707 75.0447 37.5448Z" fill="#666666"/>
<path d="M41.3543 35.7311C41.6263 30.7432 39.9032 22.5813 35.7316 15.8703C35.6409 15.689 35.4142 15.7797 35.4595 15.961C35.7316 16.9586 35.8223 18.8177 34.1899 18.727C31.3332 18.5457 34.2806 12.3789 27.9777 8.16185C27.8417 8.07116 27.7057 8.20719 27.751 8.34322C28.2045 9.15942 28.4312 11.744 27.4336 12.6056C26.6174 13.2857 25.1664 13.1044 23.7607 10.7918C21.4028 6.93755 22.3097 2.85658 23.8968 0.271967C24.0328 0.0905908 23.8514 -9.7502e-05 23.7154 0.0452466C15.0547 2.90193 13.3316 13.1044 11.4725 16.8226C11.1551 17.4574 10.883 17.7748 10.3842 17.7295C8.79717 17.6388 9.93077 14.238 10.4749 13.1044C10.5656 12.923 10.3842 12.8323 10.2482 12.9683C5.80445 17.5934 1.76883 25.5287 0.997976 32.8744C1.04332 32.693 0.907287 33.4639 0.861943 34.0533C0.861943 34.2801 0.816599 34.5068 0.816599 34.7335V35.5497C0.725911 46.7497 9.70405 55.8639 20.904 55.9999C32.104 56.0906 41.2182 47.1125 41.3543 35.9125V35.7311ZM20.9947 45.1173C15.8255 45.072 11.6538 40.855 11.6992 35.6404C11.7445 30.4258 15.9615 26.2995 21.1761 26.3448C26.3907 26.3902 30.517 30.6072 30.4717 35.8218C30.4263 41.0363 26.2093 45.1627 20.9947 45.1173Z" fill="#666666"/>
</g>
<defs>
<clipPath id="clip0_121_449">
<rect width="174.484" height="56" fill="white" transform="translate(0.816406)"/>
</clipPath>
</defs>
</svg>
