<svg width="88" height="56" viewBox="0 0 88 56" fill="none" xmlns="http://www.w3.org/2000/svg">
<path d="M62.1751 20.8548C60.8039 20.734 60.1173 20.6602 58.7461 20.4947C58.7461 35.9886 58.7461 39.8604 58.7461 55.3544C56.6973 55.0927 54.6574 54.7952 52.6174 54.4731C52.6174 38.9792 52.6174 35.1073 52.6174 19.6134C51.2463 19.3897 50.5596 19.2711 49.1885 19.0273C49.1885 17.0076 49.1885 14.99 49.1885 12.9702C53.5032 13.7218 57.8179 14.3771 62.1773 14.7976C62.1751 16.8152 62.1751 18.835 62.1751 20.8548Z" fill="#666666"/>
<path d="M75.163 55.7388C71.3068 56.0698 67.4954 56.0698 63.6348 55.8305C63.6348 38.3167 63.6348 32.4273 63.6348 14.9136C65.706 15.0411 67.7638 15.1104 69.8373 15.1126C69.8373 30.5574 69.8373 34.3823 69.8373 49.827C71.6155 49.8069 73.3937 49.7152 75.163 49.5363C75.163 51.603 75.163 53.672 75.163 55.7388Z" fill="#666666"/>
<path d="M87.4209 52.9496C83.9628 54.153 80.5339 54.9918 76.9126 55.5353C76.9126 38.0238 76.9126 32.1322 76.9126 14.6184C80.4802 14.0838 83.8644 13.263 87.2732 12.0864C87.2732 14.0816 87.2732 16.0746 87.2732 18.0697C85.8484 18.5641 84.4303 19.0405 82.9675 19.4163C82.9675 25.0842 82.9675 24.9388 82.9675 30.6067C84.3677 30.2488 85.7701 29.8127 87.1279 29.3139C87.1279 31.3091 87.1279 33.302 87.1279 35.2972C85.7724 35.796 84.3677 36.2322 82.9675 36.59C82.9675 42.428 82.9675 42.4548 82.9675 48.2905C84.4773 47.8677 85.9379 47.4092 87.4186 46.8903C87.4209 48.9123 87.4209 50.9299 87.4209 52.9496Z" fill="#666666"/>
<path d="M14.8025 41.0121C12.7402 41.1642 10.716 41.3946 8.67385 41.7167C8.67385 33.812 8.67385 31.7162 8.67385 23.8115C7.7702 23.9703 7.31612 24.0575 6.41247 24.2588C6.41247 32.1635 6.41247 34.2594 6.41247 42.164C4.30321 42.6718 2.25883 43.2735 0.209961 43.987C0.209961 26.4755 0.209961 20.5839 0.209961 3.07009C2.25883 2.35657 4.30321 1.75488 6.41247 1.24714C6.41247 8.90802 6.41247 10.76 6.41247 18.4209C7.31612 18.2196 7.7702 18.1301 8.67385 17.9736C8.67385 10.3127 8.67385 8.46066 8.67385 0.79979C10.716 0.477698 12.7425 0.247314 14.8025 0.0952148C14.8025 17.6067 14.8025 23.4983 14.8025 41.0121Z" fill="#666666"/>
<path d="M24.3603 41.5713C20.0523 41.2134 17.0014 39.0974 17.1356 34.4249C17.1356 19.0763 17.1356 15.3498 17.1356 0.00348761C19.2091 -0.0144064 21.2669 0.0370422 23.3381 0.146643C23.3381 15.2514 23.3381 18.734 23.3381 33.8388C23.3381 35.1518 23.4119 35.5902 24.3603 35.6618C25.2349 35.7289 25.3825 35.3061 25.3825 33.9932C25.3825 18.8884 25.3825 15.4058 25.3825 0.300979C27.4336 0.497814 29.4713 0.73714 31.5112 1.0145C31.5112 16.3631 31.5112 20.0895 31.5112 35.4359C31.5694 40.0391 28.6929 41.9314 24.3603 41.5713Z" fill="#666666"/>
<path d="M40.6323 43.8795C36.2102 43.0295 33.5261 40.3521 33.6268 35.6751C33.6268 30.3717 33.6268 30.8817 33.6268 25.5784C35.6488 25.9027 37.6663 26.2472 39.6839 26.6051C39.6839 31.6646 39.6839 30.913 39.6839 35.9726C39.6839 37.5047 39.8293 37.8962 40.6323 38.0416C41.5091 38.2004 41.726 37.876 41.726 36.3439C41.726 31.7943 41.726 33.0581 41.726 28.5085C41.8423 26.2159 39.9075 24.9588 38.3687 23.5966C35.8792 21.3957 33.799 19.2685 33.7722 15.7479C33.7722 11.0283 33.7722 12.1221 33.7722 7.40254C33.7968 3.2489 36.926 1.32752 40.8492 2.12381C44.4705 2.8597 47.517 5.23737 47.5617 9.19195C47.5617 14.2269 47.5617 13.4507 47.5617 18.4856C45.6158 18.1322 43.6698 17.7721 41.7238 17.4142C41.7238 12.8669 41.7238 14.1285 41.7238 9.5789C41.7238 8.1183 41.5046 7.71345 40.7754 7.58148C40.0462 7.44728 39.7532 7.76042 39.7532 9.22102C39.7532 13.3568 39.7532 11.6792 39.7532 15.815C39.5564 18.0405 42.1331 19.6644 43.5467 20.8879C46.0094 23.0195 47.7563 25.2317 47.7071 28.6539C47.7071 33.7381 47.7071 33.0111 47.7071 38.0952C47.7697 42.7007 45.0409 44.7272 40.6323 43.8795Z" fill="#666666"/>
</svg>
