<svg width="67" height="56" viewBox="0 0 67 56" fill="none" xmlns="http://www.w3.org/2000/svg">
<path fill-rule="evenodd" clip-rule="evenodd" d="M66.2096 20.6779H62.0495V12.9712H56.1064V45.9762H62.0495V26.5714H66.2096V20.6779Z" fill="#666666"/>
<path fill-rule="evenodd" clip-rule="evenodd" d="M43.0054 56H37.0625V12.5719C37.0625 5.64031 42.7492 0 49.7392 0V5.89374C46.0261 5.89374 43.0054 8.88953 43.0054 12.5719V56Z" fill="#666666"/>
<path fill-rule="evenodd" clip-rule="evenodd" d="M34.0652 20.6778H53.1081L51.4233 26.5715H34.0652C32.7354 31.8141 27.942 35.7068 22.2488 35.7068C15.531 35.7068 10.0659 30.2869 10.0659 23.6247C10.0659 16.9624 15.531 11.5425 22.2488 11.5425C27.942 11.5425 32.7354 15.4352 34.0652 20.6778ZM15.4145 23.6247C15.4145 27.3619 18.4804 30.4025 22.2488 30.4025C26.0171 30.4025 29.0831 27.3619 29.0831 23.6247C29.0831 19.8874 26.0171 16.8468 22.2488 16.8468C18.4804 16.8468 15.4145 19.8874 15.4145 23.6247Z" fill="#666666"/>
<path fill-rule="evenodd" clip-rule="evenodd" d="M16.7488 45.5819C7.67943 45.5819 0.300781 38.2642 0.300781 29.2692V12.9712H6.24364V29.2692C6.24364 35.0138 10.9563 39.6881 16.7488 39.6881V45.5819Z" fill="#666666"/>
</svg>
