<svg width="125" height="40" viewBox="0 0 125 40" fill="none" xmlns="http://www.w3.org/2000/svg">
<path d="M26.3008 32.3H32.1008V15.4H26.3008V32.3ZM34.1008 3.9H30.2008V7.8H34.1008V3.9ZM12.2008 5.8H6.60078V10.7H11.8008C15.1008 10.7 17.0008 12.3 17.0008 15.3C17.0008 18.3 15.1008 20 11.8008 20H6.60078V10.8H0.800781V32.3H6.60078V24.9H12.1008C18.8008 24.9 22.7008 21.3 22.7008 15.1C22.7008 9.3 18.9008 5.8 12.2008 5.8ZM38.0008 0H26.3008V11.7H38.0008V0ZM36.1008 9.7H28.3008V1.9H36.1008V9.7ZM70.1008 5.8H64.8008V10.7H69.8008C73.1008 10.7 75.0008 12.3 75.0008 15.3C75.0008 18.3 73.1008 20 69.8008 20H64.8008V10.8H59.0008V32.3H64.8008V24.9H70.1008C76.8008 24.9 80.7008 21.3 80.7008 15.1C80.7008 9.3 76.8008 5.8 70.1008 5.8ZM118.801 12L113.801 24.6L108.801 12H102.801L110.801 32.3L107.701 40H113.801L124.801 12H118.801ZM92.8008 11.9C89.3008 11.9 86.6008 12.7 83.6008 14.2L85.4008 18.2C87.5008 17 89.6008 16.4 91.5008 16.4C94.3008 16.4 95.7008 17.6 95.7008 19.8V20.2H90.1008C85.1008 20.2 82.4008 22.5 82.4008 26.3C82.4008 30 85.0008 32.6 89.4008 32.6C92.2008 32.6 94.2008 31.6 95.8008 29.9V32.1H101.501V18.9C101.301 14.6 98.2008 11.9 92.8008 11.9ZM96.2008 25.5C95.6008 27.2 93.9008 28.6 91.5008 28.6C89.5008 28.6 88.3008 27.6 88.3008 26C88.3008 24.4 89.4008 23.7 91.6008 23.7H96.2008V25.5ZM46.9008 27.9C44.1008 27.9 42.1008 25.7 42.1008 22.4C42.1008 19.2 44.1008 17 46.9008 17C48.9008 17 50.4008 17.8 51.5008 19.2L55.4008 16.4C53.6008 13.7 50.5008 12.1 46.6008 12.1C40.5008 12 36.3008 16.2 36.3008 22.4C36.3008 28.6 40.5008 32.7 46.6008 32.7C50.8008 32.7 53.9008 31 55.6008 28.2L51.6008 25.5C50.6008 27.1 49.0008 27.9 46.9008 27.9Z" fill="#666666"/>
</svg>
